<svg xmlns="http://www.w3.org/2000/svg" width="132.68" height="124.73" viewBox="0 0 132.68 124.73">
  <g id="Layer_2" data-name="Layer 2">
    <g id="OBJECTS">
      <g>
        <path d="M130.25,62.36a24.6,24.6,0,1,1-24.6-24.6A24.6,24.6,0,0,1,130.25,62.36Z" style="fill: #fff;stroke: #000;stroke-miterlimit: 10"/>
        <path d="M105.65,97.53A35.14,35.14,0,0,1,76.71,82.34a24.61,24.61,0,1,1,0-39.95,35.16,35.16,0,0,1,37.93-14,62.37,62.37,0,1,0,0,68A35.12,35.12,0,0,1,105.65,97.53Z" style="fill: #25a5dc"/>
        <g>
          <path d="M103.05,15.12A35.16,35.16,0,0,0,76.71,30.2,24.59,24.59,0,0,0,38.53,56.27,24.58,24.58,0,0,1,76.71,42.39a35.16,35.16,0,0,1,37.93-14A63,63,0,0,0,103.05,15.12Z" style="fill: #0c7bab"/>
          <path d="M103.05,97.42A62.34,62.34,0,0,1,.3,56.27c-.19,2-.3,4-.3,6.09a62.36,62.36,0,0,0,114.64,34,35.12,35.12,0,0,1-9,1.17C104.77,97.53,103.91,97.49,103.05,97.42Z" style="fill: #0c7bab"/>
        </g>
        <path d="M132.68,62.36a27,27,0,1,1-27-27A27,27,0,0,1,132.68,62.36Z" style="fill: #91aa2f"/>
        <path d="M105.65,35.33a20.95,20.95,0,1,1-21,20.94,20.94,20.94,0,0,1,21-20.94,27,27,0,1,0,27,27A27,27,0,0,0,105.65,35.33Z" style="fill: #687d15"/>
      </g>
    </g>
  </g>
</svg>
