<?xml version="1.0" standalone="no"?>
<!DOCTYPE svg PUBLIC "-//W3C//DTD SVG 20010904//EN"
 "http://www.w3.org/TR/2001/REC-SVG-20010904/DTD/svg10.dtd">
<svg version="1.0" xmlns="http://www.w3.org/2000/svg"
 width="1438.000000pt" height="1438.000000pt" viewBox="0 0 1438.000000 1438.000000"
 preserveAspectRatio="xMidYMid meet">
<metadata>
Created by potrace 1.14, written by Peter Selinger 2001-2017
</metadata>
<g transform="translate(0.000000,1438.000000) scale(0.100000,-0.100000)"
fill="#000000" stroke="none">
<path d="M5 7190 l0 -2480 60 0 c81 -1 816 -1 835 0 13 0 15 232 15 2028 l0
2027 970 2 c1033 2 1055 1 1175 -47 166 -66 296 -190 371 -355 37 -82 50 -140
54 -240 13 -309 -190 -579 -502 -667 -77 -21 -89 -22 -833 -24 -415 -1 -759
-2 -764 -3 -5 0 0 -11 11 -23 12 -13 130 -162 262 -333 133 -170 247 -317 254
-325 6 -8 138 -177 292 -375 154 -198 285 -367 292 -375 13 -16 551 -706 643
-825 87 -112 277 -355 322 -412 22 -29 48 -53 57 -54 62 -3 1211 -3 1211 0 0
1 -35 48 -77 103 -89 114 -278 356 -296 378 -7 8 -26 33 -42 55 -16 22 -32 42
-35 45 -3 3 -44 55 -90 115 -47 61 -90 117 -97 125 -18 23 -384 492 -413 530
-14 18 -45 59 -70 90 -25 32 -57 73 -71 91 -15 19 -86 110 -159 203 -139 179
-148 193 -128 193 75 1 285 70 412 136 408 209 664 607 723 1122 11 93 7 363
-5 435 -7 36 -14 79 -17 95 -18 100 -72 252 -136 380 -138 277 -393 536 -668
679 -96 49 -191 91 -231 102 -8 2 -55 15 -105 29 -49 14 -110 28 -135 31 -25
3 -54 9 -65 12 -11 4 -695 8 -1520 9 l-1500 4 0 -2481z"/>
<path d="M6069 9666 c-2 -3 -32 -7 -66 -11 -34 -3 -93 -15 -130 -26 -37 -11
-77 -22 -87 -24 -11 -3 -66 -27 -122 -54 -328 -161 -578 -485 -688 -892 -14
-52 -28 -110 -31 -129 -3 -19 -7 -46 -10 -60 -21 -117 -21 -361 1 -475 2 -10
6 -37 9 -60 8 -53 42 -186 65 -255 149 -441 473 -751 897 -859 82 -21 103 -25
193 -37 30 -4 516 -8 1080 -9 564 -1 1036 -5 1050 -9 229 -75 383 -283 380
-516 -1 -84 -2 -102 -14 -170 -32 -178 -149 -355 -278 -421 -99 -51 -36 -49
-1688 -49 l-1545 0 0 -450 0 -450 25 -1 c14 0 723 -1 1576 -1 1382 0 1638 3
1694 17 8 2 35 7 60 10 24 4 47 8 51 10 3 2 21 7 40 10 117 20 341 122 457
207 166 122 313 309 391 498 12 30 26 64 31 75 21 48 77 267 85 335 1 14 5 48
9 75 17 129 23 364 12 475 -36 360 -158 639 -376 860 -182 186 -410 307 -690
367 l-115 25 -1070 3 c-588 2 -1081 5 -1094 9 -127 30 -218 100 -271 210 -58
119 -85 296 -65 421 35 219 127 376 251 433 37 16 140 17 1639 19 880 1 1603
2 1608 2 4 1 7 204 7 451 l0 450 -1633 0 c-899 0 -1636 -2 -1638 -4z"/>
<path d="M9983 7190 l0 -2480 21 0 c39 -1 750 -1 821 -1 l70 1 -1 2029 -2
2028 982 0 c988 1 987 1 1127 -32 8 -2 37 -13 65 -26 246 -113 398 -349 396
-614 -1 -111 -20 -185 -74 -295 -92 -184 -296 -331 -497 -358 -26 -3 -380 -6
-788 -6 -409 -1 -743 -2 -743 -4 0 -2 545 -704 607 -782 7 -8 31 -38 53 -67
l41 -52 442 3 c405 3 485 6 557 21 14 3 39 8 55 11 146 26 356 109 505 201
147 91 291 217 409 357 32 40 141 202 141 211 0 5 6 16 14 24 19 21 99 210
125 295 48 156 71 383 60 581 -3 46 -30 204 -44 255 -8 30 -17 62 -19 70 -2 8
-12 35 -21 60 -9 25 -19 54 -22 65 -12 37 -96 198 -136 259 -252 384 -624 624
-1102 712 -22 4 -716 9 -1541 11 l-1501 4 0 -2481z"/>
</g>
</svg>
