<?xml version="1.0" standalone="no"?>
<!DOCTYPE svg PUBLIC "-//W3C//DTD SVG 20010904//EN"
 "http://www.w3.org/TR/2001/REC-SVG-20010904/DTD/svg10.dtd">
<svg version="1.0" xmlns="http://www.w3.org/2000/svg"
 width="545.000000pt" height="545.000000pt" viewBox="0 0 545.000000 545.000000"
 preserveAspectRatio="xMidYMid meet">
<metadata>
Created by potrace 1.14, written by Peter Selinger 2001-2017
</metadata>
<g transform="translate(0.000000,545.000000) scale(0.100000,-0.100000)"
fill="#000000" stroke="none">
<path d="M2305 5279 c-38 -4 -88 -10 -110 -13 -22 -4 -58 -10 -80 -13 -22 -3
-92 -18 -155 -34 -63 -16 -124 -31 -134 -34 -84 -20 -306 -109 -421 -168 -157
-81 -304 -175 -449 -290 -73 -57 -283 -259 -331 -317 -81 -100 -138 -174 -176
-230 -239 -348 -385 -741 -436 -1170 -15 -125 -8 -536 11 -658 167 -1077 974
-1923 2036 -2136 188 -38 297 -46 550 -42 129 2 246 6 260 9 14 3 59 11 100
17 122 19 306 66 435 110 238 81 559 259 750 414 179 145 373 349 489 516 74
105 72 99 23 88 -188 -44 -458 -47 -631 -8 -148 33 -294 89 -411 157 -63 37
-136 84 -145 93 -3 3 -22 18 -43 34 -58 42 -166 152 -231 233 -57 71 -63 75
-96 47 -27 -22 -173 -91 -241 -113 -145 -47 -354 -61 -499 -32 -204 41 -402
150 -541 297 -49 53 -129 157 -129 168 0 3 -11 23 -23 44 -41 64 -81 177 -113
314 -10 40 -12 252 -4 303 14 86 17 98 45 180 170 510 704 795 1224 654 86
-23 202 -75 267 -118 25 -17 48 -31 52 -31 4 0 25 25 46 55 54 75 195 213 291
285 176 133 441 239 662 268 115 14 372 6 470 -15 110 -24 112 -35 -17 135
-310 412 -758 730 -1249 888 -68 22 -135 41 -171 49 -8 2 -55 13 -105 24 -49
11 -144 26 -210 34 -127 15 -442 18 -560 6z"/>
<path d="M4095 3815 c-214 -49 -373 -135 -533 -289 -219 -210 -334 -485 -335
-796 0 -239 55 -421 187 -620 198 -296 514 -473 872 -487 161 -7 264 7 404 53
277 92 507 291 641 556 77 152 108 280 115 464 17 495 -295 939 -769 1094
-169 55 -407 65 -582 25z"/>
</g>
</svg>
